<?xml version="1.0" encoding="UTF-8"?>
<svg id="b" data-name="Calque 2" xmlns="http://www.w3.org/2000/svg" width="720.81mm" height="132.437mm" viewBox="0 0 2043.24 375.413">
  <g id="c" data-name="Calque 1">
    <g>
      <path d="M1262.552,175.813c-4.485-2.756-10.861-4.137-19.135-4.137h-110.142c-2.763,0-5.169,1.035-7.237,3.102-2.068,2.069-3.105,4.485-3.105,7.24v37.748c0,2.764,1.037,5.172,3.105,7.24,2.068,2.069,4.474,3.102,7.237,3.102h66.706c-8.97,23.786-22.928,42.838-41.883,57.139-18.962,14.31-41.029,21.459-66.191,21.459-21.714,0-41.883-5.43-60.499-16.287-18.616-10.859-33.353-25.596-44.21-44.212-10.861-18.616-16.289-38.783-16.289-60.5s5.429-41.885,16.289-60.501c10.857-18.614,25.594-33.353,44.21-44.212,18.616-10.858,38.785-16.287,60.499-16.287l13.447,.517c5.857,0,9.308-2.756,10.338-8.274l8.278-44.987c.684-3.102,.166-5.858-1.553-8.274-1.729-2.407-4.135-3.789-7.24-4.135-7.586-1.035-15.342-1.552-23.27-1.552-34.127,0-65.589,8.363-94.367,25.079-28.789,16.724-51.541,39.478-68.259,68.256-16.725,28.789-25.079,60.242-25.079,94.372s8.354,65.59,25.079,94.37c16.718,28.787,39.47,51.539,68.259,68.256,28.778,16.724,60.24,25.079,94.367,25.079,33.782,0,64.202-8.354,91.27-25.079,27.06-16.717,48.173-39.38,63.341-67.999,15.165-28.61,22.755-60.153,22.755-94.628,0-5.172-2.248-9.131-6.722-11.894Z" fill="#212425"/>
      <path d="M1649.571,7.757h-52.225c-1.729,0-3.105,.606-4.139,1.81-1.034,1.212-2.068,2.674-3.102,4.395l-78.082,128.24c-.346,.695-1.21,1.899-2.583,3.62-1.383,1.728-3.282,2.585-5.692,2.585h-.515c-2.417,0-4.395-.686-5.947-2.068-1.553-1.374-2.504-2.409-2.842-3.104L1415.844,13.444c-.695-1.373-1.808-2.665-3.361-3.878-1.553-1.204-2.842-1.81-3.88-1.81h-51.71c-2.413,0-4.571,.953-6.462,2.843-1.898,1.899-2.842,4.226-2.842,6.982v240.251c0,2.416,.944,4.573,2.842,6.463,1.891,1.899,4.049,2.844,6.462,2.844h50.676c2.406,0,4.478-.857,6.207-2.585,1.718-1.721,2.586-3.959,2.586-6.722v-104.256c0-3.102,.684-4.653,2.068-4.653,1.718,0,3.271,1.55,4.654,4.653l56.36,79.116c2.756,3.451,5.252,5.689,7.5,6.724,2.241,1.033,6.462,1.55,12.669,1.55h8.789c5.173,0,8.872-.686,11.12-2.068,2.237-1.374,5.083-4.308,8.53-8.792,5.857-7.926,15.075-20.684,27.665-38.266,12.583-17.581,21.628-30.508,27.146-38.781,2.071-2.409,3.62-3.62,4.654-3.62,1.376,0,2.068,1.55,2.068,4.653v204.771c0,2.763,.857,5.001,2.586,6.722,1.722,1.728,3.79,2.585,6.207,2.585h51.191c2.41,0,4.478-.857,6.207-2.585,1.722-1.721,2.583-3.96,2.583-6.722V17.582c0-2.756-.861-5.083-2.583-6.982-1.729-1.89-3.797-2.843-6.207-2.843Z" fill="#212425"/>
      <path d="M1948.094,13.962c-.695-2.068-2.248-3.878-4.654-5.43-.22-.14-.429-.241-.645-.368-1.909-1.277-3.761-1.959-5.54-1.959h-111.716c-1.779,0-3.631,.682-5.54,1.959-.216,.127-.425,.228-.645,.368-2.406,1.552-3.959,3.362-4.654,5.43l-95.145,347.489v1.035c0,4.137,2.068,6.205,6.207,6.205h52.744c2.417,0,4.654-.775,6.722-2.327,2.068-1.55,3.451-3.36,4.139-5.43l25.853-96.18c1.034-3.102,2.932-5.687,5.688-7.757,2.763-2.068,5.688-3.102,8.789-3.102h103.402c3.102,0,6.027,1.035,8.789,3.102,2.756,2.069,4.654,4.654,5.688,7.757l25.853,96.18c.688,2.069,2.071,3.879,4.139,5.43,2.068,1.552,4.305,2.327,6.722,2.327h52.744c4.139,0,6.207-2.068,6.207-6.205v-1.035L1948.094,13.962Zm-23.53,180.725c-1.898,2.246-4.395,3.362-7.496,3.362h-71.342c-3.102,0-5.598-1.116-7.496-3.362-1.891-2.238-2.327-4.912-1.293-8.015l28.958-105.489c.695-2.754,2.413-5.17,5.169-7.238,2.763-2.069,5.688-3.104,8.789-3.104h3.087c3.102,0,6.027,1.035,8.789,3.104,2.756,2.068,4.474,4.484,5.169,7.238l28.958,105.489c1.034,3.102,.598,5.776-1.293,8.015Z" fill="#212425"/>
      <path d="M1406.839,308.009h-49.869c-5.184,0-9.38,4.2-9.38,9.38v41.477c0,2.763,.865,5.001,2.583,6.722,1.729,1.728,3.797,2.585,6.207,2.585h51.191c2.417,0,4.485-.857,6.207-2.585,1.344-1.34,2.147-3.003,2.442-4.973v-43.226c0-5.18-4.2-9.38-9.38-9.38Z" fill="#212425"/>
      <path d="M319.867,131.859l-132.787,177.92c-5.2,7.264-13.584,11.573-22.517,11.573h-41.13L367.553,1.035H58.572C12.743,1.035,0,32.667,0,60.731V127.339H57.747v-38.426c0-15.564,12.619-28.182,28.182-28.182H239.886L0,375.413H363.731l18.326-54.061h-126.805l132.369-189.493h-67.754Z" fill="#212425"/>
      <path d="M825.754,109.823c-2.201-4.512-4.568-8.894-7.068-13.171-.465-.842-.868-1.701-1.347-2.54-.62-1.163-1.322-2.176-2.082-3.077-7.579-12.011-16.372-23.07-26.433-33.133-19.261-19.258-41.869-33.823-67.826-43.694-22.197-8.44-45.154-12.437-68.864-12.056-1.326-.716-2.781-1.119-4.402-1.119h-1.034c-25.169,1.381-49.125,7.675-71.879,18.874-10.003,4.927-19.407,10.825-28.277,17.584-1.124,.837-2.242,1.68-3.346,2.544-.198,.159-.398,.319-.596,.479-5.672,4.477-11.122,9.278-16.309,14.463-19.499,19.499-34.131,42.288-43.877,68.374-9.753,26.081-12.918,52.773-9.506,80.076,1.947,21.934,7.615,42.718,17.002,62.342,1.313,2.748,2.7,5.444,4.132,8.108,11.097,21.804,26.111,40.838,45.1,57.064,15.852,14.139,33.951,24.91,54.294,32.318,20.338,7.408,41.368,11.117,63.088,11.117,27.573,0,54.035-5.768,79.373-17.322,22.179-10.106,41.119-24.112,56.825-42.012,1.394-.438,2.666-1.175,3.779-2.289l.731-.73c16.819-18.774,29.308-40.163,37.481-64.171,8.163-24.012,10.911-49.303,8.224-75.869-1.949-21.945-7.676-42.668-17.183-62.161Zm-57.279,117.957c-4.654,13.275-11.635,25.427-20.943,36.455-11.037,13.793-24.481,24.304-40.334,31.543-15.861,7.24-32.406,10.859-49.642,10.859-11.111,0-21.79-1.46-32.049-4.336-.969-.464-1.976-.891-3.051-1.247-18.036-5.856-34.005-15.722-47.899-29.617-9.753-9.752-17.676-20.967-23.767-33.638-6.095-12.678-9.753-26.207-10.969-40.587-.405-3.647-.594-7.26-.652-10.853,.29-28.068,9.575-53.308,27.897-75.7,.546-.702,1.124-1.367,1.684-2.053,1.518-1.701,3.084-3.371,4.71-4.998,19.991-19.99,44.608-31.445,73.858-34.369,17.55-1.462,34.553,.914,51.007,7.129,16.455,6.217,30.77,15.414,42.964,27.606,9.568,9.569,17.132,20.184,22.831,31.772,7.518,15.951,11.336,33.086,11.336,51.444,0,13.791-2.331,27.324-6.981,40.591Z" fill="#212425"/>
    </g>
  </g>
</svg>